<svg aria-hidden="true" viewBox="0 0 24 24"><path
    d="M20.405 6.79775L20.8725 5.64645C20.8725 5.64645 20.2775 5.00683 19.555 4.28193C18.8325 3.55704 17.3025 3.98345 17.3025 3.98345L15.56 2H12.5H9.44L7.6975 3.98345C7.6975 3.98345 6.1675 3.55704 5.445 4.28193C4.7225 5.00683 4.1275 5.64645 4.1275 5.64645L4.595 6.79775L4 8.50339C4 8.50339 5.74994 15.1535 5.955 15.9656C6.35875 17.5646 6.635 18.1829 7.7825 18.9931C8.93 19.8033 11.0125 21.2104 11.3525 21.4236C11.6925 21.6368 12.1175 22 12.5 22C12.8825 22 13.3075 21.6368 13.6475 21.4236C13.9875 21.2104 16.07 19.8033 17.2175 18.9931C18.365 18.1829 18.6413 17.5646 19.045 15.9656C19.25 15.1535 21 8.50339 21 8.50339L20.405 6.79775Z"
    fill="#FF5500"
  /><path
    d="M12.4999 14.4467C12.6164 14.4467 13.3628 14.7111 13.9617 15.0221C14.5606 15.333 14.9947 15.5529 15.1335 15.6401C15.2722 15.7272 15.1876 15.8915 15.0612 15.9811C14.9348 16.0708 13.2365 17.3903 13.0717 17.5361C12.9068 17.682 12.6646 17.9228 12.4999 17.9228C12.3352 17.9228 12.093 17.682 11.9282 17.5361C11.7633 17.3903 10.065 16.0708 9.9386 15.9811C9.81221 15.8915 9.72763 15.7272 9.86635 15.6401C10.0051 15.5529 10.4392 15.333 11.0381 15.0221C11.637 14.7111 12.3834 14.4467 12.4999 14.4467ZM12.509 5.04883C12.5662 5.05042 12.8885 5.06613 13.3499 5.22045C13.8599 5.39101 14.4124 5.60422 14.6674 5.60422C14.9224 5.60422 16.8137 5.24177 16.8137 5.24177C16.8137 5.24177 19.0549 7.96013 19.0549 8.54112C19.0549 9.1221 18.773 9.27544 18.4895 9.57747C18.2061 9.87949 16.968 11.1985 16.809 11.3679C16.65 11.5373 16.319 11.7942 16.5137 12.2564C16.7084 12.7187 16.9956 13.3069 16.6762 13.9036C16.3568 14.5002 15.8096 14.8984 15.459 14.8326C15.1084 14.7667 14.2849 14.335 13.9821 14.1378C13.6793 13.9405 12.7196 13.1464 12.7196 12.8425C12.7196 12.5387 13.7116 11.9932 13.8949 11.8692C14.0782 11.7453 14.9142 11.2655 14.9313 11.0772C14.9484 10.8889 14.9419 10.8337 14.6952 10.3684C14.4485 9.90303 14.0042 9.28209 14.0782 8.86894C14.1521 8.45584 14.8687 8.24101 15.38 8.04725C15.8913 7.85353 16.8758 7.48763 16.9988 7.43075C17.1218 7.37382 17.09 7.31962 16.7174 7.28419C16.3449 7.24875 15.2877 7.10795 14.811 7.24125C14.3344 7.37455 13.5201 7.57735 13.4541 7.68489C13.3882 7.79243 13.33 7.79605 13.3977 8.16703C13.4654 8.53801 13.8142 10.3181 13.848 10.6343C13.8819 10.9505 13.9481 11.1595 13.6083 11.2374C13.2685 11.3154 12.6965 11.4507 12.4999 11.4507C12.3034 11.4507 11.7313 11.3154 11.3915 11.2374C11.0517 11.1595 11.1179 10.9505 11.1518 10.6343C11.1856 10.3181 11.5344 8.53801 11.6021 8.16703C11.6698 7.79605 11.6116 7.79243 11.5457 7.68489C11.4797 7.57735 10.6654 7.37455 10.1888 7.24125C9.71213 7.10795 8.65494 7.24875 8.28239 7.28419C7.90983 7.31962 7.87804 7.37382 8.00104 7.43075C8.12403 7.48763 9.10854 7.85353 9.61982 8.04725C10.1311 8.24101 10.8477 8.45584 10.9217 8.86894C10.9956 9.28209 10.5513 9.90303 10.3046 10.3684C10.0579 10.8337 10.0514 10.8889 10.0685 11.0772C10.0856 11.2655 10.9216 11.7453 11.1049 11.8692C11.2882 11.9932 12.2802 12.5387 12.2802 12.8425C12.2802 13.1464 11.3205 13.9405 11.0177 14.1378C10.7149 14.335 9.89148 14.7667 9.54085 14.8326C9.19023 14.8984 8.64304 14.5002 8.32361 13.9036C8.00422 13.3069 8.29144 12.7187 8.48609 12.2564C8.68078 11.7942 8.34983 11.5373 8.1908 11.3679C8.03185 11.1985 6.79374 9.87949 6.51026 9.57747C6.22679 9.27544 5.94489 9.1221 5.94489 8.54112C5.94489 7.96013 8.18617 5.24177 8.18617 5.24177C8.18617 5.24177 10.0774 5.60422 10.3324 5.60422C10.5874 5.60422 11.1399 5.39101 11.6499 5.22045C12.1113 5.06613 12.4336 5.05042 12.4908 5.04883H12.509Z"
    fill="white"
  /><path
    d="M17.3024 3.98345L15.5599 2H12.4999H9.43988L7.69739 3.98345C7.69739 3.98345 6.16739 3.55704 5.44489 4.28193C5.44489 4.28193 7.48489 4.09717 8.18614 5.24136C8.18614 5.24136 10.0774 5.60381 10.3324 5.60381C10.5874 5.60381 11.1399 5.3906 11.6499 5.22004C12.1599 5.04947 12.4999 5.04824 12.4999 5.04824C12.4999 5.04824 12.8399 5.04947 13.3499 5.22004C13.8599 5.3906 14.4124 5.60381 14.6674 5.60381C14.9224 5.60381 16.8136 5.24136 16.8136 5.24136C17.5149 4.09717 19.5549 4.28193 19.5549 4.28193C18.8324 3.55704 17.3024 3.98345 17.3024 3.98345Z"
    fill="#FF5500"
  /></svg>
