<svg width="432" height="440" viewBox="0 0 432 440" fill="none" xmlns="http://www.w3.org/2000/svg">
<g clip-path="url(#clip0)">
<path d="M276.766 228.935C276.766 260.64 250.916 286.342 219.027 286.342C187.137 286.342 161.287 260.64 161.287 228.935C161.287 197.229 187.137 171.527 219.027 171.527C250.916 171.527 276.766 197.229 276.766 228.935V228.935Z" stroke="#A2BBD4" stroke-width="1.72606" stroke-linecap="round" stroke-dasharray="5.18 5.18"/>
<path d="M18.1426 234.601C16.9832 224.625 24.1768 215.604 34.21 214.451C44.2435 213.298 53.3169 220.451 54.4763 230.426C55.6358 240.402 48.4422 249.423 38.4087 250.576C28.3755 251.728 19.3021 244.576 18.1426 234.601V234.601Z" stroke="#78B2F6" stroke-width="0.863031" stroke-linecap="round" stroke-dasharray="0.86 3.45"/>
<ellipse rx="15.2711" ry="15.2995" transform="matrix(-0.584156 0.811641 0.814041 0.580807 36.5469 232.488)" fill="#E6F3FF"/>
<g clip-path="url(#clip1)">
<path d="M35.185 231.713C34.6309 232.482 34.8086 233.552 35.5818 234.103C36.355 234.654 37.4311 234.477 37.9852 233.708C38.5393 232.94 38.3617 231.87 37.5884 231.319C36.8152 230.768 35.7392 230.945 35.185 231.713Z" stroke="#78B2F6" stroke-width="1.29455" stroke-linecap="round" stroke-linejoin="round"/>
<path d="M32.7093 235.148C32.6131 234.986 32.4702 234.857 32.2991 234.776C32.1281 234.696 31.9366 234.668 31.7496 234.696L31.7015 234.704C31.5526 234.729 31.4003 234.724 31.2534 234.69C31.1064 234.656 30.9676 234.593 30.8449 234.506C30.7223 234.419 30.6181 234.308 30.5385 234.181C30.4588 234.053 30.4052 233.911 30.3807 233.763C30.3561 233.615 30.361 233.464 30.3952 233.318C30.4295 233.172 30.4923 233.034 30.5802 232.912C30.6681 232.79 30.7793 232.686 30.9075 232.607C31.0357 232.528 31.1783 232.475 31.3272 232.45L31.3753 232.442C31.5617 232.41 31.734 232.322 31.8699 232.191C32.0059 232.06 32.0992 231.892 32.138 231.707C32.1777 231.528 32.1639 231.341 32.0981 231.169C32.0323 230.998 31.9174 230.849 31.7677 230.741L31.6884 230.685C31.4408 230.508 31.2739 230.242 31.2243 229.943C31.1747 229.644 31.2465 229.338 31.4238 229.092C31.6012 228.846 31.8697 228.68 32.1702 228.63C32.4707 228.581 32.7786 228.652 33.0261 228.829L33.0681 228.859C33.2252 228.965 33.4108 229.022 33.6009 229.022C33.791 229.023 33.9768 228.966 34.134 228.86C34.297 228.764 34.4275 228.622 34.5085 228.452C34.5895 228.282 34.6175 228.091 34.5887 227.905L34.5808 227.858C34.5561 227.71 34.561 227.558 34.5953 227.412C34.6295 227.266 34.6923 227.128 34.7802 227.006C34.8681 226.884 34.9794 226.781 35.1075 226.701C35.2357 226.622 35.3783 226.569 35.5272 226.544C35.6761 226.52 35.8284 226.525 35.9754 226.559C36.1223 226.593 36.2611 226.655 36.3838 226.743C36.5064 226.83 36.6106 226.941 36.6902 227.068C36.7699 227.196 36.8235 227.337 36.848 227.485L36.8559 227.533C36.8888 227.719 36.9768 227.89 37.1085 228.025C37.2402 228.16 37.4096 228.253 37.5949 228.292C37.7754 228.331 37.9635 228.317 38.1361 228.252C38.3088 228.186 38.4584 228.072 38.5666 227.923L38.6235 227.844C38.8009 227.598 39.0694 227.432 39.3698 227.383C39.6703 227.334 39.9782 227.405 40.2258 227.581C40.4733 227.758 40.6402 228.025 40.6898 228.324C40.7395 228.622 40.6677 228.928 40.4903 229.175L40.4602 229.216C40.3531 229.372 40.2957 229.557 40.2955 229.746C40.2954 229.935 40.3524 230.12 40.4592 230.276C40.5554 230.438 40.6983 230.568 40.8694 230.648C41.0404 230.729 41.2318 230.757 41.4189 230.728L41.467 230.72C41.6159 230.696 41.7682 230.701 41.9151 230.735C42.0621 230.769 42.2009 230.831 42.3236 230.919C42.4462 231.006 42.5503 231.116 42.63 231.244C42.7096 231.371 42.7633 231.513 42.7878 231.661C42.8124 231.809 42.8075 231.961 42.7733 232.107C42.739 232.253 42.6762 232.391 42.5883 232.513C42.5004 232.635 42.3892 232.738 42.261 232.817C42.1328 232.897 41.9902 232.95 41.8413 232.974L41.7932 232.982C41.6068 233.015 41.4345 233.102 41.2986 233.233C41.1626 233.364 41.0693 233.533 41.0305 233.717L41.0038 233.754C40.964 233.934 40.9779 234.121 41.0437 234.292C41.1095 234.464 41.2243 234.613 41.374 234.72L41.4534 234.777C41.7009 234.953 41.8679 235.22 41.9175 235.519C41.9671 235.818 41.8953 236.124 41.7179 236.37C41.5405 236.616 41.272 236.782 40.9715 236.831C40.6711 236.881 40.3632 236.809 40.1156 236.633L40.0736 236.603C39.923 236.496 39.7444 236.436 39.5598 236.429C39.3751 236.423 39.1925 236.47 39.0345 236.565C38.8715 236.661 38.741 236.803 38.66 236.973C38.579 237.143 38.551 237.333 38.5798 237.519L38.5877 237.567C38.6124 237.715 38.6075 237.866 38.5732 238.012C38.539 238.159 38.4761 238.297 38.3882 238.418C38.3003 238.54 38.1891 238.644 38.061 238.723C37.9328 238.802 37.7902 238.856 37.6413 238.88C37.4924 238.905 37.3401 238.9 37.1931 238.866C37.0462 238.832 36.9074 238.769 36.7847 238.682C36.6621 238.594 36.5579 238.484 36.4783 238.356C36.3986 238.229 36.345 238.087 36.3205 237.939L36.3126 237.891C36.2797 237.706 36.1917 237.535 36.06 237.399C35.9283 237.264 35.7588 237.171 35.5736 237.133L35.5362 237.106C35.3558 237.067 35.1677 237.081 34.995 237.146C34.8224 237.211 34.6727 237.326 34.5645 237.475L34.5077 237.553C34.3303 237.8 34.0618 237.966 33.7613 238.015C33.4608 238.064 33.153 237.993 32.9054 237.816C32.6579 237.64 32.4909 237.373 32.4413 237.074C32.3917 236.776 32.4635 236.47 32.6409 236.223L32.671 236.182C32.778 236.032 32.8387 235.854 32.8455 235.671C32.8523 235.487 32.8049 235.306 32.7093 235.148V235.148Z" stroke="#78B2F6" stroke-width="1.29455" stroke-linecap="round" stroke-linejoin="round"/>
</g>
<path d="M48.1766 116.233C40.9104 124.116 28.5929 124.649 20.6646 117.425C12.7361 110.2 12.1995 97.953 19.4657 90.0702C26.7321 82.1871 39.0497 81.6536 46.9781 88.8784C54.9064 96.103 55.443 108.35 48.1766 116.233V116.233Z" stroke="#59A6FF" stroke-width="0.863031" stroke-linecap="round" stroke-dasharray="0.86 3.45"/>
<ellipse rx="16.2683" ry="16.2834" transform="matrix(0.889268 0.461993 0.464239 -0.883321 34.227 103.296)" fill="#CDE7FF"/>
<g clip-path="url(#clip2)">
<path d="M37.1548 110.071C40.8412 108.399 42.4666 104.073 40.7853 100.408C39.1039 96.7423 34.7525 95.126 31.0662 96.7976C27.3798 98.4692 25.7543 102.796 27.4357 106.461C29.117 110.126 33.4684 111.742 37.1548 110.071Z" stroke="#59A6FF" stroke-width="1.72606" stroke-linecap="round" stroke-linejoin="round"/>
<path d="M27.4355 106.461L40.7851 100.408" stroke="#59A6FF" stroke-width="1.72606" stroke-linecap="round" stroke-linejoin="round"/>
<path d="M31.0662 96.7972C33.5694 97.8575 35.6 99.7857 36.7804 102.223C37.8577 104.707 37.9907 107.496 37.1548 110.07C34.6516 109.01 32.6209 107.082 31.4406 104.644C30.3633 102.16 30.2302 99.3716 31.0662 96.7972V96.7972Z" stroke="#59A6FF" stroke-width="1.72606" stroke-linecap="round" stroke-linejoin="round"/>
</g>
<path d="M405.597 393.829C398.485 400.253 387.49 399.721 381.039 392.642C374.587 385.562 375.123 374.615 382.234 368.191C389.346 361.766 400.341 362.298 406.792 369.378C413.243 376.457 412.708 387.404 405.597 393.829V393.829Z" stroke="#2F8FFF" stroke-width="0.863031" stroke-linecap="round" stroke-dasharray="0.86 3.45"/>
<ellipse rx="14.5835" ry="14.4994" transform="matrix(1 0 0 -1 393.756 380.833)" fill="#A6D4FF" fill-opacity="0.4"/>
<g clip-path="url(#clip3)">
<path d="M393.92 382.298C394.825 382.298 395.558 381.568 395.558 380.668C395.558 379.769 394.825 379.039 393.92 379.039C393.015 379.039 392.281 379.769 392.281 380.668C392.281 381.568 393.015 382.298 393.92 382.298Z" stroke="#2F8FFF" stroke-width="1.29455" stroke-linecap="round" stroke-linejoin="round"/>
<path d="M397.962 382.299C397.889 382.462 397.867 382.644 397.899 382.82C397.932 382.996 398.016 383.159 398.142 383.287L398.175 383.32C398.276 383.42 398.357 383.54 398.412 383.672C398.467 383.804 398.495 383.945 398.495 384.088C398.495 384.231 398.467 384.372 398.412 384.504C398.357 384.636 398.276 384.756 398.175 384.857C398.073 384.958 397.953 385.038 397.82 385.092C397.688 385.147 397.545 385.175 397.402 385.175C397.258 385.175 397.116 385.147 396.983 385.092C396.851 385.038 396.73 384.958 396.629 384.857L396.596 384.824C396.467 384.699 396.304 384.615 396.127 384.583C395.95 384.551 395.767 384.572 395.602 384.645C395.441 384.714 395.303 384.828 395.206 384.974C395.109 385.119 395.057 385.29 395.056 385.465V385.557C395.056 385.845 394.941 386.121 394.736 386.325C394.531 386.529 394.253 386.643 393.963 386.643C393.674 386.643 393.396 386.529 393.191 386.325C392.986 386.121 392.871 385.845 392.871 385.557V385.508C392.867 385.328 392.808 385.154 392.703 385.008C392.598 384.862 392.451 384.75 392.281 384.688C392.116 384.616 391.934 384.594 391.757 384.626C391.579 384.658 391.416 384.742 391.287 384.867L391.254 384.9C391.153 385.001 391.032 385.081 390.9 385.136C390.767 385.19 390.625 385.219 390.481 385.219C390.338 385.219 390.196 385.19 390.063 385.136C389.931 385.081 389.81 385.001 389.709 384.9C389.607 384.799 389.526 384.679 389.471 384.547C389.417 384.416 389.388 384.274 389.388 384.131C389.388 383.989 389.417 383.847 389.471 383.716C389.526 383.584 389.607 383.464 389.709 383.363L389.741 383.33C389.867 383.202 389.952 383.04 389.984 382.864C390.016 382.688 389.994 382.506 389.922 382.342C389.852 382.181 389.737 382.044 389.591 381.948C389.444 381.851 389.273 381.8 389.097 381.799H389.004C388.714 381.799 388.436 381.684 388.232 381.481C388.027 381.277 387.912 381.001 387.912 380.713C387.912 380.425 388.027 380.148 388.232 379.945C388.436 379.741 388.714 379.627 389.004 379.627H389.053C389.234 379.622 389.409 379.564 389.556 379.46C389.703 379.355 389.816 379.209 389.878 379.04C389.951 378.876 389.972 378.695 389.94 378.518C389.908 378.342 389.824 378.18 389.698 378.052L389.665 378.019C389.563 377.918 389.483 377.798 389.428 377.666C389.373 377.535 389.345 377.393 389.345 377.251C389.345 377.108 389.373 376.966 389.428 376.835C389.483 376.703 389.563 376.583 389.665 376.482C389.766 376.381 389.887 376.301 390.019 376.246C390.152 376.192 390.294 376.164 390.438 376.164C390.581 376.164 390.723 376.192 390.856 376.246C390.989 376.301 391.109 376.381 391.211 376.482L391.243 376.515C391.372 376.64 391.536 376.724 391.713 376.756C391.89 376.788 392.073 376.766 392.238 376.694H392.281C392.443 376.625 392.581 376.511 392.678 376.365C392.775 376.219 392.827 376.049 392.827 375.874V375.781C392.827 375.493 392.942 375.217 393.147 375.013C393.352 374.81 393.63 374.695 393.92 374.695C394.21 374.695 394.487 374.81 394.692 375.013C394.897 375.217 395.012 375.493 395.012 375.781V375.83C395.013 376.005 395.065 376.176 395.162 376.322C395.259 376.467 395.397 376.582 395.558 376.65C395.723 376.723 395.906 376.744 396.083 376.712C396.26 376.68 396.424 376.596 396.552 376.471L396.585 376.439C396.687 376.338 396.807 376.258 396.94 376.203C397.072 376.148 397.215 376.12 397.358 376.12C397.502 376.12 397.644 376.148 397.776 376.203C397.909 376.258 398.03 376.338 398.131 376.439C398.233 376.54 398.313 376.659 398.368 376.791C398.423 376.923 398.451 377.064 398.451 377.207C398.451 377.35 398.423 377.491 398.368 377.623C398.313 377.755 398.233 377.875 398.131 377.976L398.098 378.008C397.972 378.136 397.888 378.299 397.856 378.475C397.824 378.651 397.845 378.833 397.918 378.997V379.04C397.987 379.201 398.102 379.338 398.249 379.434C398.395 379.531 398.567 379.582 398.743 379.583H398.836C399.125 379.583 399.403 379.698 399.608 379.901C399.813 380.105 399.928 380.381 399.928 380.669C399.928 380.957 399.813 381.234 399.608 381.437C399.403 381.641 399.125 381.755 398.836 381.755H398.786C398.611 381.756 398.439 381.808 398.292 381.904C398.146 382.001 398.031 382.138 397.962 382.299V382.299Z" stroke="#2F8FFF" stroke-width="1.29455" stroke-linecap="round" stroke-linejoin="round"/>
</g>
<path d="M38.8282 133.381C38.8282 137.196 35.7174 140.292 31.8747 140.292C28.0321 140.292 24.9213 137.196 24.9213 133.381C24.9213 129.567 28.0321 126.471 31.8747 126.471C35.7174 126.471 38.8282 129.567 38.8282 133.381Z" stroke="#B7D4EF" stroke-width="0.863031"/>
<path opacity="0.62" d="M313.137 229.041C313.137 281.062 270.911 323.234 218.821 323.234C166.73 323.234 124.503 281.062 124.503 229.041C124.503 177.019 166.73 134.848 218.821 134.848C270.911 134.848 313.137 177.019 313.137 229.041V229.041Z" stroke="#6991BA" stroke-width="1.72606" stroke-linecap="round" stroke-dasharray="5.18 5.18"/>
<ellipse cx="219.242" cy="229.045" rx="50.429" ry="50.1383" fill="#4C47F7"/>
<path fill-rule="evenodd" clip-rule="evenodd" d="M221.312 206.146C224.111 203.458 227.86 201.971 231.751 202.004C235.642 202.038 239.364 203.59 242.115 206.325C244.867 209.061 246.428 212.762 246.461 216.63C246.495 220.499 244.999 224.226 242.296 227.009C242.286 227.02 242.276 227.03 242.265 227.04L234.881 234.382C234.881 234.382 234.88 234.383 234.88 234.383C233.376 235.879 231.565 237.036 229.572 237.775C227.578 238.515 225.448 238.819 223.325 238.668C221.202 238.517 219.137 237.914 217.27 236.899C215.402 235.885 213.776 234.483 212.501 232.789C211.664 231.676 211.893 230.098 213.012 229.265C214.132 228.432 215.719 228.66 216.557 229.773C217.396 230.889 218.468 231.813 219.698 232.481C220.928 233.149 222.288 233.547 223.687 233.646C225.085 233.746 226.488 233.545 227.802 233.058C229.115 232.571 230.308 231.809 231.299 230.823L238.668 223.496C240.44 221.665 241.42 219.216 241.398 216.674C241.375 214.126 240.347 211.688 238.535 209.886C236.722 208.083 234.27 207.061 231.707 207.039C229.149 207.017 226.685 207.992 224.842 209.755L220.622 213.927C219.63 214.907 218.027 214.903 217.041 213.917C216.055 212.931 216.06 211.337 217.052 210.356L221.286 206.171C221.294 206.163 221.303 206.154 221.312 206.146Z" fill="white" stroke="white" stroke-width="1.29455" stroke-linecap="round" stroke-linejoin="round"/>
<path fill-rule="evenodd" clip-rule="evenodd" d="M209.333 219.891C211.327 219.152 213.458 218.847 215.58 218.999C217.703 219.15 219.768 219.753 221.635 220.767C223.503 221.782 225.129 223.184 226.404 224.878C227.241 225.991 227.013 227.569 225.893 228.402C224.773 229.234 223.186 229.007 222.349 227.894C221.509 226.778 220.438 225.854 219.207 225.186C217.977 224.518 216.617 224.12 215.218 224.021C213.82 223.921 212.417 224.122 211.103 224.609C209.79 225.096 208.597 225.858 207.606 226.844L200.237 234.17C198.465 236.002 197.485 238.451 197.507 240.993C197.53 243.541 198.558 245.979 200.371 247.781C202.183 249.583 204.635 250.606 207.198 250.628C209.755 250.65 212.218 249.675 214.06 247.914L218.253 243.745C219.242 242.762 220.845 242.762 221.834 243.745C222.823 244.728 222.823 246.322 221.834 247.305L217.625 251.49L217.62 251.495C217.611 251.504 217.602 251.512 217.593 251.521C214.794 254.209 211.046 255.696 207.154 255.662C203.263 255.629 199.541 254.077 196.79 251.341C194.038 248.606 192.477 244.905 192.444 241.036C192.41 237.168 193.906 233.441 196.609 230.658C196.619 230.647 196.629 230.637 196.64 230.627L204.024 223.284C204.025 223.284 204.025 223.284 204.025 223.284C205.529 221.788 207.34 220.631 209.333 219.891Z" fill="white" stroke="white" stroke-width="1.29455" stroke-linecap="round" stroke-linejoin="round"/>
<path d="M358.35 100.391C353.423 108.618 342.727 111.307 334.459 106.398C326.19 101.489 323.482 90.8412 328.409 82.6146C333.336 74.3877 344.032 71.6981 352.301 76.607C360.569 81.5158 363.277 92.1641 358.35 100.391V100.391Z" stroke="#797FF2" stroke-width="0.863031" stroke-linecap="round" stroke-dasharray="0.86 3.45"/>
<ellipse rx="14.137" ry="14.0555" transform="matrix(1 0 0 -1 343.312 91.8429)" fill="#E1E0FB"/>
<path d="M347.461 91.0742H339.583C338.962 91.0742 338.458 91.5752 338.458 92.1931V96.1094C338.458 96.7274 338.962 97.2283 339.583 97.2283H347.461C348.082 97.2283 348.586 96.7274 348.586 96.1094V92.1931C348.586 91.5752 348.082 91.0742 347.461 91.0742Z" stroke="#797FF2" stroke-width="1.29455" stroke-linecap="round" stroke-linejoin="round"/>
<path d="M340.709 91.0771V88.8392C340.708 88.1455 340.967 87.4763 341.434 86.9615C341.902 86.4466 342.545 86.1229 343.239 86.0532C343.933 85.9835 344.629 86.1727 345.191 86.5842C345.752 86.9956 346.14 87.5999 346.279 88.2797" stroke="#797FF2" stroke-width="1.29455" stroke-linecap="round" stroke-linejoin="round"/>
<path d="M355.425 228.699C355.425 303.193 294.682 363.602 219.728 363.602C144.774 363.602 84.0314 303.193 84.0314 228.699C84.0314 154.204 144.774 93.7955 219.728 93.7955C294.682 93.7955 355.425 154.204 355.425 228.699Z" stroke="#797FF2" stroke-opacity="0.6" stroke-width="3.90359"/>
<path d="M75.282 387.226C74.8683 393.182 69.6771 397.676 63.6871 397.265C57.697 396.853 53.1765 391.692 53.5902 385.737C54.004 379.781 59.1952 375.287 65.1853 375.698C71.1753 376.109 75.6958 381.271 75.282 387.226Z" fill="#E6F3FF"/>
<path d="M76.9073 387.531C76.2676 394.429 70.1248 399.504 63.1867 398.866C56.2485 398.228 51.1426 392.119 51.7823 385.221C52.4219 378.323 58.5648 373.247 65.503 373.885C72.441 374.523 77.5469 380.632 76.9073 387.531V387.531Z" stroke="#78B2F6" stroke-width="0.863031" stroke-linecap="round" stroke-linejoin="round" stroke-dasharray="0.86 2.59"/>
<path d="M64.724 383.515L66.4338 385.561C66.4953 385.635 66.6051 385.645 66.6791 385.583L67.7637 384.687C67.8377 384.626 67.8478 384.517 67.7864 384.443L64.9526 381.052C64.8912 380.978 64.7813 380.968 64.7073 381.029L61.2982 383.847C61.2242 383.908 61.2141 384.017 61.2755 384.09L62.1767 385.169C62.2382 385.243 62.3481 385.253 62.4221 385.192L64.4786 383.492C64.5527 383.431 64.6625 383.441 64.724 383.515Z" fill="#78B2F6"/>
<path d="M60.0757 384.857L58.991 385.754C58.917 385.815 58.9069 385.924 58.9684 385.998L59.8696 387.076C59.931 387.15 60.0409 387.16 60.1149 387.099L61.1995 386.202C61.2735 386.141 61.2837 386.032 61.2222 385.958L60.321 384.88C60.2595 384.806 60.1497 384.796 60.0757 384.857Z" fill="#78B2F6"/>
<path d="M63.963 391.701L67.374 388.882C67.448 388.821 67.4581 388.711 67.3965 388.638L66.4947 387.56C66.4332 387.486 66.3234 387.476 66.2494 387.537L64.1917 389.238C64.1177 389.299 64.0078 389.289 63.9464 389.215L62.2374 387.17C62.176 387.096 62.0663 387.086 61.9922 387.147L60.9063 388.042C60.8321 388.103 60.8219 388.213 60.8835 388.286L63.7177 391.678C63.7792 391.752 63.889 391.762 63.963 391.701Z" fill="#78B2F6"/>
<path d="M68.5561 385.635L67.4715 386.531C67.3975 386.592 67.3874 386.701 67.4489 386.775L68.3501 387.853C68.4115 387.927 68.5214 387.937 68.5954 387.876L69.68 386.98C69.754 386.918 69.7642 386.809 69.7027 386.736L68.8015 385.657C68.74 385.584 68.6301 385.573 68.5561 385.635Z" fill="#78B2F6"/>
<path d="M65.4808 386.348L64.5625 385.249C64.501 385.175 64.3911 385.165 64.3171 385.226L63.212 386.14C63.138 386.201 63.1278 386.31 63.1893 386.383L64.1076 387.483C64.1691 387.556 64.279 387.566 64.353 387.505L65.4582 386.592C65.5322 386.531 65.5423 386.421 65.4808 386.348Z" fill="#78B2F6"/>
<ellipse rx="7.38648" ry="7.36937" transform="matrix(0.672358 -0.738256 0.744266 0.67007 414.031 99.2466)" fill="#DCEEFF"/>
<g clip-path="url(#clip4)">
<path d="M414.771 101.979L417.923 98.5181L418.484 99.3787L414.64 103.599L412.879 100.905L412.235 102.475L411.572 101.462L412.216 99.8914L410.328 97.0025L411.021 96.2421L412.675 98.7724L413.334 97.1661L413.996 98.1792L413.338 99.7856L414.771 101.979Z" fill="#78B2F7"/>
</g>
<path d="M421.703 94.919C424.079 99.2369 422.484 104.652 418.141 107.013C413.797 109.374 408.351 107.788 405.975 103.471C403.599 99.1526 405.194 93.738 409.538 91.3765C413.881 89.0151 419.327 90.6011 421.703 94.919V94.919Z" stroke="#78B2F6" stroke-width="0.863031" stroke-linecap="round" stroke-linejoin="round" stroke-dasharray="0.86 2.59"/>
<ellipse rx="7.38648" ry="7.36937" transform="matrix(0.672358 -0.738256 0.744266 0.67007 419.281 347.852)" fill="#DCEEFF"/>
<g clip-path="url(#clip5)">
<path d="M420.02 350.584L423.172 347.124L423.732 347.984L419.889 352.205L418.128 349.51L417.484 351.081L416.821 350.068L417.465 348.497L415.577 345.608L416.27 344.848L417.924 347.378L418.583 345.772L419.245 346.785L418.586 348.391L420.02 350.584Z" fill="#78B2F7"/>
</g>
<path d="M426.952 343.525C429.328 347.842 427.733 353.257 423.39 355.618C419.046 357.98 413.599 356.394 411.224 352.076C408.848 347.758 410.443 342.343 414.786 339.982C419.129 337.621 424.576 339.207 426.952 343.525V343.525Z" stroke="#78B2F6" stroke-width="0.863031" stroke-linecap="round" stroke-linejoin="round" stroke-dasharray="0.86 2.59"/>
<path d="M78.4954 242.048C78.4954 243.313 77.4628 244.344 76.1839 244.344C74.905 244.344 73.8724 243.313 73.8724 242.048C73.8724 240.782 74.905 239.752 76.1839 239.752C77.4628 239.752 78.4954 240.782 78.4954 242.048Z" stroke="#0D4D90" stroke-width="0.863031"/>
<path d="M385.666 357.309C384.278 359.983 381.043 361.049 378.451 359.719C375.859 358.389 374.858 355.151 376.246 352.476C377.634 349.802 380.869 348.737 383.461 350.067C386.053 351.396 387.054 354.634 385.666 357.309Z" stroke="#B7D4EF" stroke-width="0.863031"/>
<path d="M92.8401 93.7992C91.8268 95.7516 89.4687 96.5252 87.5826 95.5576C85.6965 94.5899 84.9643 92.2308 85.9776 90.2784C86.9909 88.326 89.349 87.5524 91.2351 88.52C93.1212 89.4877 93.8534 91.8468 92.8401 93.7992Z" stroke="#B7D4EF" stroke-width="0.863031"/>
<path d="M105.561 372.142C106.558 375.969 104.245 379.875 100.396 380.866C96.5467 381.857 92.6183 379.557 91.6216 375.73C90.6249 371.903 92.9373 367.997 96.7867 367.007C100.636 366.016 104.564 368.315 105.561 372.142Z" fill="#E1E0FB"/>
<path d="M100.622 370.387L98.4478 370.489C98.4467 370.489 98.4456 370.489 98.4445 370.489C98.4434 370.489 98.4424 370.489 98.4413 370.489L96.2666 370.591C95.9573 370.606 95.7185 370.868 95.7331 371.178C95.7478 371.487 96.0104 371.726 96.3197 371.712L97.9376 371.636L98.1922 377.003C98.2069 377.313 98.4695 377.552 98.7788 377.538C99.0881 377.523 99.3269 377.26 99.3123 376.951L99.0577 371.583L100.676 371.508C100.985 371.493 101.224 371.23 101.209 370.921C101.194 370.612 100.932 370.372 100.622 370.387Z" fill="#797FF2"/>
<path d="M98.6299 374.72C97.7993 374.759 97.0112 374.702 96.4107 374.561C95.7039 374.394 95.3372 374.133 95.3206 373.783C95.3028 373.408 95.7129 373.086 96.5064 372.851C96.6253 372.816 96.7504 372.883 96.7859 373.002C96.8212 373.12 96.7535 373.244 96.6346 373.28C95.9075 373.495 95.7672 373.715 95.7694 373.762C95.7724 373.824 95.9584 373.995 96.5143 374.126C97.0751 374.258 97.8189 374.311 98.6087 374.274C99.3986 374.237 100.134 374.115 100.68 373.931C101.221 373.748 101.39 373.561 101.387 373.498C101.385 373.453 101.231 373.253 100.52 373.107C100.399 373.082 100.32 372.964 100.346 372.843C100.371 372.723 100.49 372.645 100.611 372.67C101.395 372.831 101.818 373.11 101.836 373.477C101.852 373.827 101.512 374.122 100.824 374.354C100.24 374.551 99.4605 374.681 98.6299 374.72Z" fill="#797FF2"/>
<path d="M104.389 380.258C100.879 383.442 95.4376 383.194 92.2353 379.704C89.0329 376.214 89.2824 370.804 92.7924 367.62C96.3025 364.436 101.744 364.684 104.946 368.174C108.149 371.664 107.899 377.074 104.389 380.258V380.258Z" stroke="#797FF2" stroke-width="0.863031" stroke-linecap="round" stroke-linejoin="round" stroke-dasharray="0.86 2.59"/>
<path d="M272.084 391.707C267.356 399.602 257.092 402.183 249.158 397.472C241.224 392.762 238.624 382.544 243.352 374.649C248.08 366.755 258.344 364.174 266.279 368.885C274.213 373.595 276.812 383.813 272.084 391.707V391.707Z" stroke="#61CCEE" stroke-width="0.863031" stroke-linecap="round" stroke-dasharray="0.86 3.45"/>
<ellipse rx="14.137" ry="14.0555" transform="matrix(1 0 0 -1 257.449 383.292)" fill="white"/>
<ellipse rx="14.137" ry="14.0555" transform="matrix(1 0 0 -1 257.349 383.222)" fill="#E4F8FF"/>
<path fill-rule="evenodd" clip-rule="evenodd" d="M257.814 377.473L256.88 377.809L256.27 376.131L255.027 376.578L255.637 378.256L253.685 378.958L253.075 377.281L251.832 377.728L252.442 379.405L250.577 380.076L251.026 381.312L252.892 380.641L255.397 387.528L253.532 388.198L253.982 389.434L255.847 388.764L256.553 390.706L257.796 390.258L257.09 388.316L259.044 387.614L259.718 389.468L260.961 389.021L260.287 387.167L261.22 386.831C262.709 386.295 263.291 384.797 262.979 383.539C262.821 382.9 262.431 382.305 261.806 381.913C261.527 381.738 261.212 381.609 260.864 381.533C260.956 381.324 261.018 381.106 261.052 380.884C261.151 380.225 260.991 379.578 260.711 379.041C260.432 378.506 260.013 378.036 259.53 377.733C259.054 377.435 258.431 377.252 257.814 377.473ZM255.612 384.255L256.64 387.08L260.77 385.595C261.543 385.317 261.867 384.544 261.695 383.853C261.612 383.518 261.414 383.221 261.1 383.024C260.798 382.834 260.339 382.708 259.677 382.793L255.612 384.255ZM255.162 383.019L254.135 380.194L258.264 378.709C258.363 378.674 258.552 378.674 258.825 378.845C259.09 379.012 259.356 379.297 259.537 379.646C259.718 379.993 259.794 380.361 259.745 380.689C259.7 380.983 259.551 381.29 259.198 381.568L255.162 383.019Z" fill="#61CCEE"/>
<circle r="4.1973" transform="matrix(-0.709147 -0.70506 0.709147 -0.70506 35.6958 366.684)" stroke="#E6DFFF" stroke-width="0.863031"/>
<path d="M393.654 312.79C397.784 308.869 404.329 309.02 408.273 313.126C412.217 317.233 412.066 323.741 407.936 327.662C403.805 331.583 397.26 331.433 393.316 327.326C389.372 323.219 389.523 316.712 393.654 312.79V312.79Z" stroke="#797FF2" stroke-width="0.863031" stroke-linecap="round" stroke-linejoin="round" stroke-dasharray="0.86 2.59"/>
<path d="M392.437 322.634C391.075 318.045 393.713 313.226 398.329 311.872C402.945 310.518 407.791 313.14 409.153 317.729C410.515 322.319 407.878 327.137 403.262 328.491C398.646 329.846 393.8 327.223 392.437 322.634Z" fill="#E1E0FB"/>
<path d="M400.316 315.675C400.414 315.667 400.514 315.684 400.607 315.726L404.247 317.379C404.44 317.467 404.571 317.651 404.588 317.862L404.902 321.729C404.92 321.939 404.821 322.142 404.645 322.259L401.318 324.473C401.15 324.585 400.934 324.603 400.75 324.519L397.109 322.865C396.916 322.778 396.786 322.593 396.768 322.383L396.454 318.516C396.437 318.306 396.535 318.103 396.712 317.985L400.038 315.772C400.122 315.716 400.218 315.683 400.316 315.675ZM403.288 318.223L400.57 316.989C400.475 316.946 400.365 316.955 400.278 317.013L397.795 318.665C397.704 318.725 397.654 318.83 397.663 318.938L397.893 321.774C397.902 321.882 397.969 321.977 398.068 322.022L400.786 323.256C400.881 323.299 400.992 323.29 401.078 323.232L403.561 321.58C403.652 321.519 403.702 321.415 403.694 321.307L403.463 318.471C403.454 318.363 403.387 318.268 403.288 318.223Z" fill="#797FF2"/>
<path d="M28.3693 293.852C27.7694 292.975 27.4954 291.917 27.5949 290.862L27.6428 290.355C27.6738 290.025 27.7773 289.707 27.9458 289.422C28.2561 288.898 28.7664 288.521 29.3606 288.378L48.7115 283.731C48.7857 283.713 48.8634 283.715 48.9368 283.737L152.689 314.433L154.084 315.921C155.347 317.269 155.696 319.231 154.974 320.924C154.763 321.419 154.342 321.794 153.825 321.948L151.16 322.743L111.076 333.31L70.9911 343.878L67.9608 344.586C65.4208 345.179 62.7722 344.15 61.2997 341.997L28.3693 293.852ZM152.607 314.345L152.608 314.347L152.607 314.345Z" fill="#F9FAFF" stroke="#0D4D90" stroke-width="1.21987"/>
<path d="M28.6464 290.127C28.5957 290.056 28.5588 289.977 28.5375 289.893C28.3507 289.155 28.7748 288.402 29.5033 288.178L32.4661 287.266L113.5 269.436C115.478 269 117.535 269.731 118.794 271.317L154.898 316.768C155.229 317.184 155.243 317.767 154.934 318.197C154.61 318.649 154.144 318.98 153.609 319.138L151.164 319.861L68.784 340.651C66.7828 341.156 64.6724 340.384 63.4698 338.706L28.6464 290.127Z" fill="#F9FAFF" stroke="#0D4D90" stroke-width="1.21987"/>
<path d="M34.5013 293.128C33.2448 291.368 34.1907 288.906 36.3023 288.44L108.315 272.541C113.041 271.498 117.956 273.264 120.937 277.077L149.271 313.314C150.62 315.04 149.741 317.575 147.612 318.093L74.704 335.844C69.7137 337.059 64.4762 335.111 61.4916 330.931L34.5013 293.128Z" fill="#F9FAFF"/>
<g filter="url(#filter0_d)">
<path d="M35.802 293.253C34.8974 291.996 35.5715 290.231 37.0834 289.897L85.0221 279.313C86.682 278.947 88.4061 279.586 89.4265 280.945L119.369 320.839C120.291 322.068 119.669 323.834 118.18 324.213L69.6991 336.567C68.3179 336.919 66.8593 336.389 66.0264 335.232L35.802 293.253Z" fill="#797FF2"/>
</g>
<path d="M91.9732 279.992C91.3946 279.243 91.7897 278.151 92.7139 277.945L113.103 273.398C114.24 273.145 115.423 273.564 116.146 274.477L127.978 289.415C128.564 290.154 128.187 291.247 127.269 291.469L106.64 296.452C105.643 296.693 104.595 296.325 103.968 295.514L91.9732 279.992Z" fill="#E6DFFF"/>
<g filter="url(#filter1_d)">
<path d="M107.048 299.746C106.502 299.007 106.881 297.955 107.773 297.731L128.207 292.604C129.378 292.31 130.614 292.738 131.351 293.692L147.73 314.881C148.298 315.617 147.927 316.69 147.024 316.919L125.718 322.311C124.693 322.57 123.611 322.184 122.984 321.334L107.048 299.746Z" fill="#D2C6FF"/>
</g>
<ellipse rx="9.92165" ry="9.87978" transform="matrix(0.931187 0.364543 -0.36821 0.929743 26.4912 215.361)" fill="#E6E0FF"/>
<path d="M26.8863 215.044C25.8343 214.52 25.3285 213.097 24.5805 210.598C24.4827 210.272 24.6716 209.932 25.0024 209.84C25.3333 209.749 25.6808 209.939 25.7787 210.266C26.3837 212.287 26.8772 213.669 27.4381 213.948C27.9989 214.228 29.4075 213.793 31.3977 213.064C31.7196 212.947 32.0812 213.109 32.2055 213.428C32.3297 213.746 32.1695 214.1 31.8476 214.217C29.3872 215.118 27.9382 215.567 26.8863 215.044Z" fill="#797FF2"/>
<path d="M27.6568 221.281C27.5057 221.206 27.4787 221.118 27.4272 220.946C26.8222 218.925 26.3287 217.543 25.7678 217.264C25.207 216.985 23.7984 217.419 21.8082 218.148C21.4863 218.266 21.1247 218.103 21.0004 217.785C20.8762 217.466 21.0364 217.113 21.3583 216.995C23.8186 216.094 25.2677 215.645 26.3196 216.169C27.3715 216.692 27.8773 218.115 28.6254 220.614C28.7949 221.201 28.1434 221.574 27.6568 221.281Z" fill="#797FF2"/>
<path d="M37.7604 219.828C35.2092 225.859 28.2242 228.691 22.1588 226.154C16.0932 223.616 13.2444 216.67 15.7955 210.639C18.3467 204.608 25.3318 201.776 31.3973 204.314C37.4627 206.851 40.3116 213.797 37.7604 219.828V219.828Z" stroke="#797FF2" stroke-width="0.863031" stroke-linecap="round" stroke-linejoin="round" stroke-dasharray="0.86 2.59"/>
<path d="M405.524 175.261C405.524 176.295 404.681 177.137 403.635 177.137C402.589 177.137 401.745 176.295 401.745 175.261C401.745 174.227 402.589 173.385 403.635 173.385C404.681 173.385 405.524 174.227 405.524 175.261Z" stroke="#797FF2" stroke-opacity="0.62" stroke-width="0.863031"/>
<path d="M306.746 389.23C306.746 390.264 305.903 391.106 304.857 391.106C303.811 391.106 302.967 390.264 302.967 389.23C302.967 388.196 303.811 387.353 304.857 387.353C305.903 387.353 306.746 388.196 306.746 389.23Z" stroke="#797FF2" stroke-opacity="0.62" stroke-width="0.863031"/>
<path d="M75.5411 187.507C75.5411 188.541 74.6974 189.383 73.6516 189.383C72.6057 189.383 71.7621 188.541 71.7621 187.507C71.7621 186.473 72.6057 185.631 73.6516 185.631C74.6974 185.631 75.5411 186.473 75.5411 187.507Z" stroke="#797FF2" stroke-opacity="0.62" stroke-width="0.863031"/>
<path d="M366.979 158.438C365.213 167.574 356.277 173.564 347.02 171.817C337.763 170.07 331.691 161.248 333.457 152.112C335.224 142.976 344.16 136.986 353.417 138.733C362.674 140.48 368.746 149.302 366.979 158.438V158.438Z" stroke="#2F8FFF" stroke-width="0.863031" stroke-linecap="round" stroke-dasharray="0.86 3.45"/>
<ellipse rx="15.1746" ry="15.1624" transform="matrix(0.74855 -0.663278 -0.672815 -0.739632 350.372 155.361)" fill="#CCE7FF"/>
<g clip-path="url(#clip6)">
<path d="M350.817 160.401L349.137 153.598" stroke="#2F8FFF" stroke-width="1.72606" stroke-linecap="round" stroke-linejoin="round"/>
<path d="M354.953 159.409L352.265 148.523" stroke="#2F8FFF" stroke-width="1.72606" stroke-linecap="round" stroke-linejoin="round"/>
<path d="M346.682 161.393L346.01 158.672" stroke="#2F8FFF" stroke-width="1.72606" stroke-linecap="round" stroke-linejoin="round"/>
</g>
<rect width="42.5295" height="2.51832" rx="1.25916" transform="matrix(0.974619 -0.223869 0.22634 0.974049 51.061 299.922)" fill="#AFB2F7"/>
<path d="M376.52 259.227C380.825 251.96 377.288 248.934 373.939 247.126L335.607 318.85C342.995 320.744 343.835 320.143 347.037 314.114L376.52 259.227Z" fill="#F9FAFF" stroke="#0D4D90" stroke-width="1.21987" stroke-linecap="round" stroke-linejoin="round"/>
<path d="M373.395 246.886L347.89 239.561C345.058 238.748 342.75 242.117 341.95 243.903L325.628 272.511L311.148 296.827C308.876 301.463 310.278 303.928 311.263 304.58L333.072 317.971C338.703 320.984 341.961 316.151 343.907 312.716L373.386 257.828C377.755 250.552 375.212 247.502 373.395 246.886Z" fill="#F9FAFF" stroke="#0D4D90" stroke-width="1.21987"/>
<path d="M356.651 244.577L360.07 245.685" stroke="#0D4D90" stroke-width="1.21987" stroke-linecap="round" stroke-linejoin="round"/>
<ellipse rx="0.446638" ry="0.444728" transform="matrix(0.914128 0.404846 -0.408957 0.912814 361.727 246.177)" fill="#0D4D90"/>
<g filter="url(#filter2_d)">
<path d="M370.644 254.577C371.148 253.633 370.679 252.466 369.661 252.134L346.526 244.579C345.744 244.323 344.888 244.654 344.481 245.369L332.968 265.561C332.465 266.445 332.83 267.566 333.758 267.981L356.274 278.058C357.104 278.43 358.083 278.094 358.512 277.291L370.644 254.577Z" fill="#797FF2"/>
</g>
<g filter="url(#filter3_d)">
<path d="M355.607 281.628C356.099 280.752 355.74 279.646 354.827 279.227L332.973 269.178C332.161 268.805 331.195 269.112 330.747 269.886L314.582 297.816C314.11 298.631 314.379 299.67 315.186 300.152L336.157 312.677C336.993 313.176 338.081 312.885 338.558 312.034L355.607 281.628Z" fill="#1D57F9" fill-opacity="0.56"/>
</g>
<rect width="22.3929" height="2.33358" rx="1.16679" transform="matrix(0.945285 0.3265 -0.329833 0.943951 345.423 247.465)" fill="#AFB2F7"/>
<rect x="166.191" y="34.6099" width="104.704" height="66.2566" rx="3.2737" fill="#F9FAFF" stroke="#0D4D90" stroke-width="1.21987"/>
<rect x="170.192" y="38.125" width="97.2927" height="59.1394" rx="3.45212" fill="#F9FAFF"/>
<path d="M153.42 121.458C151.947 123.321 153.274 126.062 155.65 126.062H282.2C284.478 126.062 285.83 123.517 284.555 121.629L274.312 106.462C273.784 105.679 272.901 105.21 271.957 105.21H167.636C166.767 105.21 165.945 105.608 165.406 106.29L153.42 121.458Z" fill="#F9FAFF" stroke="#0D4D90" stroke-width="1.21987"/>
<path d="M153.42 117.704C151.947 119.567 153.274 122.308 155.65 122.308H282.2C284.478 122.308 285.83 119.763 284.555 117.875L275.082 103.848C274.072 102.352 272.386 101.456 270.581 101.456H168.89C167.229 101.456 165.659 102.216 164.629 103.52L153.42 117.704Z" fill="#F9FAFF" stroke="#0D4D90" stroke-width="1.21987"/>
<path d="M171.191 109.643C169.88 111.528 171.228 114.109 173.524 114.109H264.089C266.262 114.109 267.631 111.77 266.567 109.875L261.84 101.455H176.889L171.191 109.643Z" fill="#F9FAFF" stroke="#0D4D90" stroke-width="1.21987"/>
<g filter="url(#filter4_d)">
<rect x="170.195" y="38.125" width="30.4328" height="22.4638" rx="2.15758" fill="#D2C6FF"/>
</g>
<g filter="url(#filter5_d)">
<rect x="170.194" y="82.5938" width="30.4328" height="14.6702" rx="2.15758" fill="#B2F4FC"/>
</g>
<g filter="url(#filter6_d)">
<rect x="170.194" y="62.8789" width="30.4328" height="17.4209" rx="2.15758" fill="#BADEFF"/>
</g>
<g filter="url(#filter7_d)">
<rect x="203.394" y="38.125" width="63.1711" height="59.1394" rx="2.15758" fill="#797FF2"/>
</g>
<rect x="208.927" y="45.4609" width="52.1046" height="2.75087" rx="1.37544" fill="#AFB2F7"/>
<rect opacity="0.56" x="208.927" y="59.2148" width="52.1046" height="1.83391" rx="0.916957" fill="#AFB2F7"/>
<rect opacity="0.56" x="208.927" y="66.5469" width="52.1046" height="1.83391" rx="0.916957" fill="#AFB2F7"/>
<rect opacity="0.56" x="208.927" y="73.8828" width="52.1046" height="1.83391" rx="0.916957" fill="#AFB2F7"/>
<path d="M413.917 199.752C412.278 204.242 407.289 206.562 402.773 204.933C398.256 203.304 395.923 198.344 397.561 193.853C399.2 189.363 404.189 187.043 408.706 188.672C413.222 190.301 415.555 195.261 413.917 199.752Z" fill="#E4F8FF"/>
<g clip-path="url(#clip7)">
<path d="M408.191 193.328L407.638 192.988L402.861 195.615L403.26 200.022L403.812 200.362L407.927 198.733L408.191 193.328ZM405.762 196.002L404.104 195.67L406.939 194.111L405.762 196.002ZM405.397 196.588L404.866 197.442L403.975 196.303L405.397 196.588ZM405.95 196.928L406.842 198.068L405.418 197.783L405.95 196.928ZM407.33 197.639L406.315 196.341L407.485 194.462L407.33 197.639ZM403.878 199.64L403.631 196.917L404.715 198.301L406.406 198.639L403.878 199.64Z" fill="#61CCEE"/>
</g>
<path d="M412.195 204.71C407.805 208.255 401.356 207.59 397.79 203.225C394.224 198.86 394.893 192.448 399.283 188.903C403.673 185.358 410.122 186.023 413.688 190.388C417.254 194.753 416.585 201.165 412.195 204.71V204.71Z" stroke="#61CCEE" stroke-width="0.716045" stroke-linecap="round" stroke-linejoin="round" stroke-dasharray="0.72 2.15"/>
<path d="M79.2635 66.5584C79.2635 72.4176 74.4862 77.1674 68.593 77.1674C62.6997 77.1674 57.9224 72.4176 57.9224 66.5584C57.9224 60.699 62.6997 55.9492 68.593 55.9492C74.4862 55.9492 79.2635 60.699 79.2635 66.5584Z" fill="#E6F3FF"/>
<path d="M80.876 66.7474C80.719 73.5449 75.0493 78.9272 68.2125 78.7693C61.3754 78.6113 55.9604 72.9728 56.1175 66.1753C56.2745 59.3776 61.9442 53.9952 68.7812 54.1532C75.6181 54.3112 81.0331 59.9497 80.876 66.7474V66.7474Z" stroke="#61CCEE" stroke-width="0.719497" stroke-linecap="round" stroke-linejoin="round" stroke-dasharray="0.72 2.16"/>
<path d="M68.6725 63.6323L70.4858 65.521C70.551 65.589 70.6593 65.5914 70.7276 65.5266L71.7286 64.576C71.7969 64.5112 71.7994 64.4035 71.7342 64.3356L68.7288 61.2053C68.6636 61.1373 68.5553 61.1349 68.4871 61.1997L65.3406 64.1876C65.2723 64.2525 65.2698 64.3601 65.335 64.428L66.2908 65.4235C66.356 65.4915 66.4643 65.4939 66.5326 65.4291L68.4307 63.6268C68.499 63.5619 68.6073 63.5644 68.6725 63.6323Z" fill="#61CCEE"/>
<path d="M64.2102 65.2609L63.2092 66.2115C63.1409 66.2763 63.1384 66.384 63.2036 66.4519L64.1593 67.4474C64.2245 67.5153 64.3328 67.5178 64.4011 67.4529L65.4022 66.5023C65.4704 66.4375 65.4729 66.3299 65.4077 66.262L64.4519 65.2665C64.3868 65.1986 64.2785 65.1961 64.2102 65.2609Z" fill="#61CCEE"/>
<path d="M68.4834 71.705L71.6316 68.7154C71.6999 68.6506 71.7024 68.5429 71.6371 68.475L70.6807 67.48C70.6155 67.4121 70.5073 67.4097 70.439 67.4745L68.5398 69.2779C68.4716 69.3427 68.3633 69.3403 68.2981 69.2723L66.4856 67.3846C66.4204 67.3168 66.3123 67.3142 66.244 67.3789L65.2416 68.3282C65.1731 68.393 65.1705 68.5007 65.2358 68.5687L68.2417 71.6994C68.3069 71.7673 68.4152 71.7698 68.4834 71.705Z" fill="#61CCEE"/>
<path d="M72.5676 65.4523L71.5666 66.4029C71.4983 66.4678 71.4958 66.5754 71.561 66.6433L72.5168 67.6388C72.582 67.7067 72.6903 67.7092 72.7586 67.6444L73.7596 66.6937C73.8279 66.6289 73.8304 66.5213 73.7652 66.4534L72.8094 65.4579C72.7442 65.39 72.6359 65.3875 72.5676 65.4523Z" fill="#61CCEE"/>
<path d="M69.6056 66.3595L68.6317 65.345C68.5665 65.2771 68.4582 65.2746 68.3899 65.3395L67.3699 66.3081C67.3016 66.3729 67.2991 66.4806 67.3643 66.5485L68.3382 67.563C68.4034 67.6309 68.5117 67.6334 68.58 67.5685L69.6 66.5998C69.6683 66.5349 69.6708 66.4274 69.6056 66.3595Z" fill="#61CCEE"/>
</g>
<defs>
<filter id="filter0_d" x="32.8047" y="279.211" width="87.8603" height="60.9156" filterUnits="userSpaceOnUse" color-interpolation-filters="sRGB">
<feFlood flood-opacity="0" result="BackgroundImageFix"/>
<feColorMatrix in="SourceAlpha" type="matrix" values="0 0 0 0 0 0 0 0 0 0 0 0 0 0 0 0 0 0 127 0"/>
<feOffset dx="-0.863031" dy="1.72606"/>
<feGaussianBlur stdDeviation="0.863031"/>
<feColorMatrix type="matrix" values="0 0 0 0 0.0941176 0 0 0 0 0.14902 0 0 0 0 0.580392 0 0 0 0.02 0"/>
<feBlend mode="normal" in2="BackgroundImageFix" result="effect1_dropShadow"/>
<feBlend mode="normal" in="SourceGraphic" in2="effect1_dropShadow" result="shape"/>
</filter>
<filter id="filter1_d" x="105.068" y="292.512" width="44.6579" height="33.3299" filterUnits="userSpaceOnUse" color-interpolation-filters="sRGB">
<feFlood flood-opacity="0" result="BackgroundImageFix"/>
<feColorMatrix in="SourceAlpha" type="matrix" values="0 0 0 0 0 0 0 0 0 0 0 0 0 0 0 0 0 0 127 0"/>
<feOffset dy="1.72606"/>
<feGaussianBlur stdDeviation="0.863031"/>
<feColorMatrix type="matrix" values="0 0 0 0 0.0941176 0 0 0 0 0.14902 0 0 0 0 0.580392 0 0 0 0.01 0"/>
<feBlend mode="normal" in2="BackgroundImageFix" result="effect1_dropShadow"/>
<feBlend mode="normal" in="SourceGraphic" in2="effect1_dropShadow" result="shape"/>
</filter>
<filter id="filter2_d" x="330.583" y="243.413" width="48.8988" height="44.5086" filterUnits="userSpaceOnUse" color-interpolation-filters="sRGB">
<feFlood flood-opacity="0" result="BackgroundImageFix"/>
<feColorMatrix in="SourceAlpha" type="matrix" values="0 0 0 0 0 0 0 0 0 0 0 0 0 0 0 0 0 0 127 0"/>
<feOffset dx="3.23774" dy="4.31698"/>
<feGaussianBlur stdDeviation="2.69811"/>
<feColorMatrix type="matrix" values="0 0 0 0 0.0926667 0 0 0 0 0.147554 0 0 0 0 0.579167 0 0 0 0.02 0"/>
<feBlend mode="normal" in2="BackgroundImageFix" result="effect1_dropShadow"/>
<feBlend mode="normal" in="SourceGraphic" in2="effect1_dropShadow" result="shape"/>
</filter>
<filter id="filter3_d" x="312.191" y="267.94" width="52.2709" height="54.6937" filterUnits="userSpaceOnUse" color-interpolation-filters="sRGB">
<feFlood flood-opacity="0" result="BackgroundImageFix"/>
<feColorMatrix in="SourceAlpha" type="matrix" values="0 0 0 0 0 0 0 0 0 0 0 0 0 0 0 0 0 0 127 0"/>
<feOffset dx="3.23774" dy="4.31698"/>
<feGaussianBlur stdDeviation="2.69811"/>
<feColorMatrix type="matrix" values="0 0 0 0 0.0926667 0 0 0 0 0.147554 0 0 0 0 0.579167 0 0 0 0.01 0"/>
<feBlend mode="normal" in2="BackgroundImageFix" result="effect1_dropShadow"/>
<feBlend mode="normal" in="SourceGraphic" in2="effect1_dropShadow" result="shape"/>
</filter>
<filter id="filter4_d" x="168.469" y="38.125" width="33.8849" height="25.9159" filterUnits="userSpaceOnUse" color-interpolation-filters="sRGB">
<feFlood flood-opacity="0" result="BackgroundImageFix"/>
<feColorMatrix in="SourceAlpha" type="matrix" values="0 0 0 0 0 0 0 0 0 0 0 0 0 0 0 0 0 0 127 0"/>
<feOffset dy="1.72606"/>
<feGaussianBlur stdDeviation="0.863031"/>
<feColorMatrix type="matrix" values="0 0 0 0 0.0941176 0 0 0 0 0.14902 0 0 0 0 0.580392 0 0 0 0.02 0"/>
<feBlend mode="normal" in2="BackgroundImageFix" result="effect1_dropShadow"/>
<feBlend mode="normal" in="SourceGraphic" in2="effect1_dropShadow" result="shape"/>
</filter>
<filter id="filter5_d" x="168.468" y="82.5938" width="33.8849" height="18.1224" filterUnits="userSpaceOnUse" color-interpolation-filters="sRGB">
<feFlood flood-opacity="0" result="BackgroundImageFix"/>
<feColorMatrix in="SourceAlpha" type="matrix" values="0 0 0 0 0 0 0 0 0 0 0 0 0 0 0 0 0 0 127 0"/>
<feOffset dy="1.72606"/>
<feGaussianBlur stdDeviation="0.863031"/>
<feColorMatrix type="matrix" values="0 0 0 0 0.0941176 0 0 0 0 0.14902 0 0 0 0 0.580392 0 0 0 0.02 0"/>
<feBlend mode="normal" in2="BackgroundImageFix" result="effect1_dropShadow"/>
<feBlend mode="normal" in="SourceGraphic" in2="effect1_dropShadow" result="shape"/>
</filter>
<filter id="filter6_d" x="168.468" y="62.8789" width="33.8849" height="20.873" filterUnits="userSpaceOnUse" color-interpolation-filters="sRGB">
<feFlood flood-opacity="0" result="BackgroundImageFix"/>
<feColorMatrix in="SourceAlpha" type="matrix" values="0 0 0 0 0 0 0 0 0 0 0 0 0 0 0 0 0 0 127 0"/>
<feOffset dy="1.72606"/>
<feGaussianBlur stdDeviation="0.863031"/>
<feColorMatrix type="matrix" values="0 0 0 0 0.0941176 0 0 0 0 0.14902 0 0 0 0 0.580392 0 0 0 0.02 0"/>
<feBlend mode="normal" in2="BackgroundImageFix" result="effect1_dropShadow"/>
<feBlend mode="normal" in="SourceGraphic" in2="effect1_dropShadow" result="shape"/>
</filter>
<filter id="filter7_d" x="201.668" y="38.125" width="66.6232" height="62.5916" filterUnits="userSpaceOnUse" color-interpolation-filters="sRGB">
<feFlood flood-opacity="0" result="BackgroundImageFix"/>
<feColorMatrix in="SourceAlpha" type="matrix" values="0 0 0 0 0 0 0 0 0 0 0 0 0 0 0 0 0 0 127 0"/>
<feOffset dy="1.72606"/>
<feGaussianBlur stdDeviation="0.863031"/>
<feColorMatrix type="matrix" values="0 0 0 0 0.0941176 0 0 0 0 0.14902 0 0 0 0 0.580392 0 0 0 0.02 0"/>
<feBlend mode="normal" in2="BackgroundImageFix" result="effect1_dropShadow"/>
<feBlend mode="normal" in="SourceGraphic" in2="effect1_dropShadow" result="shape"/>
</filter>
<clipPath id="clip0">
<rect width="432" height="440" fill="white"/>
</clipPath>
<clipPath id="clip1">
<rect width="13.7275" height="13.7527" fill="white" transform="matrix(-0.584706 0.811245 -0.814433 -0.580257 46.1987 231.133)"/>
</clipPath>
<clipPath id="clip2">
<rect width="17.5892" height="17.5227" fill="white" transform="matrix(0.910745 -0.412969 0.41694 0.908934 22.4478 99.1016)"/>
</clipPath>
<clipPath id="clip3">
<rect width="13.1088" height="13.0342" fill="white" transform="translate(387.366 374.152)"/>
</clipPath>
<clipPath id="clip4">
<rect width="12.7353" height="12.7058" fill="white" transform="matrix(0.672358 -0.738256 0.744266 0.67007 405.022 99.6914)"/>
</clipPath>
<clipPath id="clip5">
<rect width="12.7353" height="12.7058" fill="white" transform="matrix(0.672358 -0.738256 0.744266 0.67007 410.271 348.297)"/>
</clipPath>
<clipPath id="clip6">
<rect width="17.0112" height="16.8194" fill="white" transform="matrix(0.972402 -0.23359 0.239698 0.970779 339.187 148.781)"/>
</clipPath>
<clipPath id="clip7">
<rect width="8.29307" height="8.29921" fill="white" transform="matrix(0.853079 0.524963 -0.527604 0.847531 404.357 190.969)"/>
</clipPath>
</defs>
</svg>
