<svg data-v-4334b2e0="" xmlns="http://www.w3.org/2000/svg" viewBox="0 0 30 30"><path data-v-4334b2e0="" fill="#4aa7ff" d="M30,15A15,15,0,1,1,15,0,15,15,0,0,1,30,15Z"></path><path data-v-4334b2e0="" fill="#fff" d="M7.4,15.5l.07-.1,3.9-6.1a.13.13,0,0,1,.23,0c.65,1.47,1.22,3.28,1,4.41a6.59,6.59,0,0,1-.77,1.68,2,2,0,0,1-.14.25.14.14,0,0,1-.11.06h-4A.14.14,0,0,1,7.4,15.5Z"></path><path data-v-4334b2e0="" fill="#fff" d="M24.79,16.64v1a.13.13,0,0,1-.08.13,4.93,4.93,0,0,0-1.77,1.2c-1.09,1.53-1.93,3.71-3.81,3.71H11.32a5,5,0,0,1-5-5v-.09a.13.13,0,0,1,.13-.13h4.36a.14.14,0,0,1,.14.16,1.55,1.55,0,0,0,1.53,1.69h2.16V17.56H12.49a.14.14,0,0,1-.11-.22l.08-.11A14.57,14.57,0,0,0,13.23,16a8.94,8.94,0,0,0,.54-1.07,1.8,1.8,0,0,0,.08-.21l.12-.33c0-.09,0-.19.08-.28a4.46,4.46,0,0,0,.1-1c0-.14,0-.28,0-.41s0-.3,0-.44L14,11.88c0-.2-.08-.39-.13-.59v-.07c0-.14-.07-.27-.11-.4-.13-.42-.27-.83-.41-1.21-.06-.16-.12-.3-.18-.45s-.18-.42-.27-.61-.08-.16-.12-.24-.08-.19-.12-.27l-.1-.19-.26-.49a.08.08,0,0,1,.1-.12l1.65.44h0l.22.06.23.07.09,0v-1A.85.85,0,0,1,15.47,6a.86.86,0,0,1,.6.25.89.89,0,0,1,.25.61V8.31l.17,0,0,0,.19.14.2.17.56.48.16.15a10.11,10.11,0,0,1,.85.87l.24.28a3.36,3.36,0,0,1,.24.29l.3.4.13.2a6.05,6.05,0,0,1,.32.55q.06.12.12.27a3.4,3.4,0,0,1,.25.74.94.94,0,0,1,0,.16v0a1.6,1.6,0,0,1,0,.23,2.5,2.5,0,0,1-.05.77,1.92,1.92,0,0,1-.09.32,2.08,2.08,0,0,1-.12.32,4.21,4.21,0,0,1-.33.63l-.14.22-.16.23c-.07.09-.14.19-.21.27a3.17,3.17,0,0,1-.21.27c-.1.12-.2.23-.31.34a2,2,0,0,1-.19.22l-.2.2-.26.25-.17.15a.11.11,0,0,1-.09,0H16.32v1.68H18a1.53,1.53,0,0,0,1-.37,10.53,10.53,0,0,0,1-1,.07.07,0,0,1,.06,0l4.56-1.32A.13.13,0,0,1,24.79,16.64Z"></path></svg>